<?xml version="1.0" encoding="utf-8"?>
<!-- Generator: Adobe Illustrator 29.6.1, SVG Export Plug-In . SVG Version: 9.03 Build 0)  -->
<svg version="1.0" id="Layer_1" xmlns="http://www.w3.org/2000/svg" xmlns:xlink="http://www.w3.org/1999/xlink" x="0px" y="0px"
	 viewBox="0 0 841.89 595.276" enable-background="new 0 0 841.89 595.276" xml:space="preserve">
<g>
	<g>
		<g>
			<path fill="#5A0E1F" d="M240.163,301.833c-14.947-6.696-17.607-10.452-17.607-17.673c0-7.79,5.461-12.823,13.913-12.823
				c8.656,0,14.034,5.052,14.034,13.186v4.75h11.075v-4.871c0-14.444-9.856-23.776-25.109-23.776
				c-15.091,0-25.231,9.555-25.231,23.776c0,12.68,5.832,19.727,22.282,26.932c14.736,6.469,17.225,10.236,17.225,18.271
				c0,8.208-5.517,13.307-14.398,13.307c-8.747,0-14.398-5.223-14.398-13.307v-6.082h-11.074v6.325
				c0,14.37,9.999,23.655,25.473,23.655c15.621,0,25.715-9.428,25.715-24.019C262.063,316.32,256.543,309.345,240.163,301.833z"/>
		</g>
		<g>
			<path fill="#5A0E1F" d="M320.033,327.384c0,10.238-4.816,15.215-14.723,15.215c-9.99,0-14.846-4.977-14.846-15.215v-66.875
				h-11.599v66.506c0,16.806,9.594,26.445,26.321,26.445c16.728,0,26.322-9.639,26.322-26.445v-66.506h-11.476V327.384z"/>
		</g>
		<g>
			<path fill="#5A0E1F" d="M390.359,289.679v-3.833c0-10.153-4.938-15.091-15.091-15.091s-15.091,4.938-15.091,15.091v42.274
				c0,10.161,4.938,15.091,15.091,15.091s15.091-4.931,15.091-15.091v-15.454h-16.345v-10.987h27.703v26.199
				c0,16.652-9.64,26.199-26.449,26.199c-16.88,0-26.563-9.548-26.563-26.199v-41.54c0-16.801,9.59-26.442,26.32-26.442
				c16.958,0,26.691,9.64,26.691,26.442v3.342H390.359z"/>
		</g>
		<g>
			<g>
				<path fill="#5A0E1F" d="M472.86,350.905c-0.876-2.529-1.361-6.512-1.361-11.201v-11.5c0-10.324-3.078-17.065-9.569-20.663
					c6.491-3.769,9.569-10.51,9.569-20.67v-1.895c0-16.466-8.906-24.468-27.24-24.468h-25.351v93.568h11.643v-40.592h12.569
					c12.676,0,16.744,3.513,16.744,14.464v11.757c0,5.23,0.492,9.462,1.503,12.932l0.42,1.439h12.17L472.86,350.905z
					 M459.863,288.133c0,8.607-2.936,14.343-17.25,14.343H430.55v-30.959h13.709c11.514,0,15.604,3.855,15.604,14.721V288.133z"/>
			</g>
		</g>
		<g>
			<g>
				<path fill="#5A0E1F" d="M551.317,327.555v-38.33c0-18.249-10.979-28.716-30.122-28.716c-18.373,0-30.603,10.413-31.159,26.527
					l-0.102,2.948h11.173l0.12-2.725c0.432-9.815,8.016-15.913,19.792-15.913c11.809,0,18.581,6.068,18.581,16.647
					c0,7.159-1.889,8.902-25.534,14.769c-19.454,4.953-27.389,12.899-27.389,27.429c0,15.11,10.262,24.497,26.782,24.497
					c12.286,0,21.795-4.657,27.447-13.276c0.122,3.927,0.676,7.136,1.164,9.4c0.179,0.832,0.976,3.261,0.976,3.261h11.057
					l-1.217-4.634C551.815,344.798,551.317,337.844,551.317,327.555z M514.865,343.851c-10.93,0-16.471-4.595-16.471-13.659
					c0-8.126,2.84-13.024,18.332-17.231c12.455-3.219,19.046-5.389,22.874-7.752v11.093
					C539.6,334.067,530.815,343.851,514.865,343.851z"/>
			</g>
		</g>
		<g>
			<g>
				<path fill="#5A0E1F" d="M619.284,321.319l-0.11,2.735c-0.5,12.394-7.824,19.22-20.623,19.22
					c-13.622,0-20.822-7.502-20.822-21.694v-12.285h53.142v-15.419c0-21.094-11.78-33.192-32.32-33.192
					c-20.651,0-32.495,12.098-32.495,33.192v27.007c0,21.094,11.844,33.192,32.495,33.192c19.196,0,30.951-10.829,32.253-29.71
					l0.21-3.046H619.284z M577.73,298.842v-5.664c0-14.193,7.2-21.694,20.822-21.694c13.701,0,20.647,7.299,20.647,21.694v5.664
					H577.73z"/>
			</g>
		</g>
		<g>
			<polygon fill="#5A0E1F" points="607.257,240.587 593.852,240.587 589.814,253.521 599.045,253.521 			"/>
		</g>
	</g>
</g>
</svg>
