<svg id="Layer_1" data-name="Layer 1" xmlns="http://www.w3.org/2000/svg" viewBox="0 0 976.8 402.71"><defs><style>.cls-1,.cls-3{fill:#e2b823;}.cls-2{fill:#c19141;}.cls-3{stroke:#e2b823;stroke-miterlimit:10;stroke-width:0.75px;}.cls-4{opacity:0.68;}.cls-5{fill:#f7ec13;}</style></defs><path class="cls-1" d="M117.36,315.73c-6.79,25.81-30.57,34.42-54.12,34.42-20.6,0-37.81-5.66-52.53-16.08V302.14H15c8.15,26,23.55,40.76,45.06,41.9,21.74,1.13,32.61-10.2,35.1-24.46,3.85-22.19-14.27-31.93-35.1-43.7C37.2,263,12.52,247.57,19.31,217.23c5-22.19,24-30.35,45.52-30.35,17.43,0,30.34,6.12,45.29,16.08v30.57h-4.31c-6.79-28.08-19.92-39.63-38-40.3-17.66-.91-26.72,8.15-27.85,22C38.11,234.89,56,243.27,76.6,255.27,104.91,271.8,125.06,285.16,117.36,315.73Z" transform="translate(-9.91 -56.52)"/><path class="cls-2" d="M63.24,350.94c-20.23,0-37.57-5.3-53-16.22l-.34-.24V301.35h5.68l.18.56c8.12,25.94,23.45,40.23,44.34,41.33,19,1,31.46-7.68,34.28-23.8,3.68-21.2-13.54-30.92-33.47-42.17l-1.24-.7c-25.48-14.38-47.81-29.76-41.14-59.52,4.48-20,20.92-31,46.29-31,17.83,0,30.71,6.2,45.73,16.21l.35.24v31.79h-5.72l-.15-.61c-6.29-26-18.49-39-37.3-39.7-16-.82-25.86,6.92-27,21.24-1.62,17.55,12.86,25.86,31.19,36.38l5.1,2.94c29.8,17.41,48.75,31.08,41.13,61.34h0C110.11,346.39,80.3,350.94,63.24,350.94ZM11.5,333.66c15.06,10.56,32,15.7,51.74,15.7,16.6,0,45.6-4.4,53.35-33.83,7.37-29.26-10.34-42-40.39-59.57-1.72-1-3.42-2-5.09-2.94-18.08-10.38-33.69-19.34-32-37.9,1.25-15.29,11.73-23.53,28.68-22.69,19.46.73,32.1,13.92,38.63,40.31h2.88V203.39c-14.61-9.71-27.2-15.71-44.49-15.71-14.22,0-38.94,3.86-44.74,29.72-6.43,28.7,15.43,43.71,40.37,57.79l1.24.7C82.15,287.44,99.82,297.41,96,319.72c-3,17-16.06,26.13-35.92,25.11-21.46-1.13-37.22-15.61-45.6-41.89H11.5Z" transform="translate(-9.91 -56.52)"/><path class="cls-1" d="M280.17,189.38v5c-8.38.68-10.64,4.53-10.64,13.36v78.8c0,36.23-22,63.63-58.88,63.63-35.32,0-66.12-20.83-66.12-63.18V207.72c0-8.83-2.26-12.68-10.64-13.36v-5H179.4v5c-8.6.68-10.87,4.53-10.87,13.36v79.71c0,38.49,21.51,53.44,47.78,53.44,29.89,0,44.38-24.69,44.38-53.9V207.72c0-8.83-2.26-12.68-10.64-13.36v-5Z" transform="translate(-9.91 -56.52)"/><path class="cls-2" d="M210.65,350.94c-30.87,0-66.91-16.75-66.91-64V207.72c0-8.91-2.41-12-9.92-12.57l-.73-.06v-6.51h47.1v6.51l-.73.06c-7.77.61-10.13,3.55-10.13,12.57v79.71c0,33.45,17.12,52.64,47,52.64,32.17,0,43.59-28.6,43.59-53.1V207.72c0-8.91-2.41-12-9.91-12.57l-.73-.06v-6.51H281v6.51l-.73.06c-7.5.61-9.91,3.66-9.91,12.57v78.8C270.32,325.05,246.34,350.94,210.65,350.94Zm-76-157.3c8.88,1,10.64,5.92,10.64,14.08V287c0,46,35.19,62.39,65.33,62.39,34.74,0,58.08-25.26,58.08-62.84v-78.8c0-8.16,1.77-13.12,10.64-14.08v-3.47H250.84v3.47c8.88,1,10.65,5.92,10.65,14.08V287c0,33.22-17.74,54.69-45.18,54.69-30.87,0-48.57-19.77-48.57-54.23V207.72c0-8.17,1.8-13.13,10.87-14.09v-3.46H134.68Z" transform="translate(-9.91 -56.52)"/><path class="cls-1" d="M572.72,342.9v5H540.11L498.45,282c-2.27,0-4.76.23-7,.23H469v47.1c0,8.83,2.26,12.9,10.64,13.58v5H434.14v-5c8.6-.68,10.87-4.75,10.87-13.58V207.72c0-8.83-2.27-12.68-10.87-13.36v-5h57.29c33.28,0,62.5,14,62.5,46.42,0,22-13.37,35.32-32.61,41.89l34.19,51.63C560.49,337,566.61,341.54,572.72,342.9ZM528.79,235.8c0-23.33-15.63-37.82-39.63-37.82H469v75.41h20.15C513.16,273.39,528.79,259.12,528.79,235.8Z" transform="translate(-9.91 -56.52)"/><path class="cls-2" d="M573.51,348.68H539.68l-.24-.37L498,282.79c-1,0-2,.06-3,.11-1.2.05-2.4.11-3.54.11H469.8v46.31c0,9.07,2.41,12.18,9.92,12.79l.73.06v6.51H433.34v-6.51l.73-.06c7.68-.6,10.14-3.71,10.14-12.79V207.72c0-9-2.37-12-10.14-12.57l-.73-.06v-6.51h58.09c30.59,0,63.29,12.41,63.29,47.22,0,20.19-11.12,34.8-32.18,42.3l33.63,50.78c4.65,7.18,10.59,11.89,16.72,13.25l.62.14Zm-33-1.59h31.38v-3.56c-6.32-1.62-12.37-6.49-17.09-13.78l-34.75-52.48,1-.33c14.63-5,32.07-16.18,32.07-41.14,0-33.64-31.87-45.63-61.7-45.63h-56.5v3.46c9.07,1,10.87,5.92,10.87,14.09v121.6c0,8.09-1.84,13.34-10.87,14.31v3.46h43.93v-3.47c-8.84-1-10.64-6.21-10.64-14.3v-47.9h23.21c1.12,0,2.29-.05,3.47-.11s2.4-.11,3.55-.11h.43Zm-51.39-72.91H468.22v-77h20.94c24.56,0,40.42,15.15,40.42,38.61S513.72,274.18,489.16,274.18Zm-19.36-1.59h19.36c24,0,38.84-14.1,38.84-36.79,0-22.84-14.88-37-38.84-37H469.8Z" transform="translate(-9.91 -56.52)"/><path class="cls-1" d="M735.75,342.9v5H684.81v-5c8.37-.68,12.45-6.34,9.28-14.49L681,296.71H617.1l-12.23,32.61c-3.17,8.6.45,12.68,9.06,13.58v5H579.51v-5c8.6-.9,12.45-5,15.62-13.36l45.52-121.82c2.72-7.25,1.13-12.68-6.79-13.36v-5H661L719.9,329.32C723.53,337.7,727.15,342.22,735.75,342.9Zm-58.19-54.8-30.12-73.36L620.27,288.1Z" transform="translate(-9.91 -56.52)"/><path class="cls-2" d="M736.55,348.68H684v-6.51l.73-.06c4-.32,7-1.83,8.48-4.25s1.54-5.55.13-9.16l-12.92-31.2H617.65l-12,32.1c-1.37,3.72-1.43,6.63-.18,8.63s4.2,3.42,8.58,3.89l.71.07v6.49h-36v-6.49l.71-.07c7.76-.82,11.68-4.19,15-12.86l45.52-121.82c1.48-3.95,1.56-7.14.24-9.23-1.11-1.76-3.25-2.8-6.36-3.06l-.73-.06v-6.51h28.5L720.63,329c3.46,8,6.91,12.45,15.19,13.1l.73.06Zm-50.95-1.59H735v-3.46c-8.51-.92-12.27-5.86-15.79-14L660.5,190.17H634.65v3.47c3.24.42,5.54,1.67,6.84,3.73,1.6,2.52,1.56,6.2-.1,10.63L595.88,329.82c-2.89,7.62-6.53,12.61-15.58,13.79v3.48h32.83v-3.48c-4.55-.59-7.52-2.08-9-4.54s-1.51-5.82,0-10l12.42-33.12h64.94l13.33,32.19c1.6,4.11,1.51,7.77-.26,10.6s-4.85,4.42-9,4.91Zm-6.86-58.19H619.13l28.27-76.34Zm-57.33-1.59h55l-28.9-70.39Z" transform="translate(-9.91 -56.52)"/><path class="cls-1" d="M866.4,312.56l-4.3,35.32H749.33v-5c8.38-.9,10.65-4.75,10.65-13.58V207.72c0-8.83-2.27-12.68-10.65-13.36v-5H857.12l4.3,35.09h-4.3c-3.62-11.54-9.74-26.49-30.8-26.49H784V263.2h28.08c15.85,0,20.15-5.21,21.74-14.72h4.07v38.27H833.8c-1.59-9.51-5.89-14.95-21.74-14.95H784v67.25h47.55c21.06,0,27-14.94,30.8-26.49ZM821.57,164.47A286.67,286.67,0,0,1,793,174.66c-2.95.9-4.53.68-5.67-1.36-1.13-2.27-.45-3.62,2-5.44a282.89,282.89,0,0,1,24.23-18.11c5.89-3.85,10.42-2.27,13.14,2.49C829.27,157,828.13,161.75,821.57,164.47Z" transform="translate(-9.91 -56.52)"/><path class="cls-2" d="M862.8,348.68H748.54v-6.49l.71-.07c7.52-.82,9.93-3.93,9.93-12.8V207.72c0-8.91-2.41-12-9.91-12.57l-.73-.06v-6.51H857.82l4.5,36.69h-5.78l-.18-.56c-4.22-13.47-10.79-25.94-30-25.94H784.77V262.4h27.29c15.56,0,19.47-5.15,21-14l.11-.67h5.54v39.86h-5.54l-.11-.66c-1.5-9.05-5.42-14.29-21-14.29H784.77v65.67h46.76c19.74,0,25.86-13.39,30-25.95l.19-.54h5.54Zm-112.67-1.59H861.4l4.11-33.74H862.9c-4.36,12.92-10.86,26.5-31.37,26.5H783.19V271h28.87c16.2,0,20.71,5.7,22.4,14.94h2.62V249.27h-2.62c-1.67,9.11-6.17,14.72-22.4,14.72H783.19v-66.8h43.13c22.59,0,28.56,17.52,31.38,26.49h2.82l-4.1-33.51H750.13v3.47c8.87,1,10.64,5.92,10.64,14.08v121.6c0,8.11-1.77,13.09-10.64,14.29ZM790.32,176a3.88,3.88,0,0,1-3.64-2.28c-1.47-2.93-.15-4.7,2.27-6.46a279.87,279.87,0,0,1,24.25-18.13c3-2,5.89-2.69,8.45-2.08a9.45,9.45,0,0,1,5.82,4.84,9.24,9.24,0,0,1,.87,7.48c-.91,2.49-3.08,4.47-6.47,5.87h0a284,284,0,0,1-28.61,10.22A10.22,10.22,0,0,1,790.32,176Zm29.49-27.58a10.67,10.67,0,0,0-5.73,2,282.22,282.22,0,0,0-24.15,18.06c-2.58,1.88-2.66,2.85-1.84,4.47.77,1.39,1.68,1.89,4.71,1a281.84,281.84,0,0,0,28.46-10.17h0c3-1.22,4.84-2.88,5.58-4.94a7.61,7.61,0,0,0-.77-6.18,7.79,7.79,0,0,0-4.8-4.06A6.41,6.41,0,0,0,819.81,148.38Z" transform="translate(-9.91 -56.52)"/><path class="cls-1" d="M374.82,189.82c.92-11.11,4.62-22.22,10.18-33.33,10.64-19.9,37.95-25.91,47.2-9.25,6.95,13.88-3.23,31.93-22.67,29.62-9.26-.93-14.35,0-19,3.24s-6,9.25-6.48,15.73" transform="translate(-9.91 -56.52)"/><path class="cls-2" d="M384.87,195.89l-1.59-.11c.41-5.67,1.55-12.64,6.82-16.33,4.85-3.4,10.14-4.31,19.51-3.38,8.57,1,16-2,20.39-8.25a19.76,19.76,0,0,0,1.5-20.23c-3.34-6-9.42-9.28-16.94-9.23-11.39.09-23,7.53-28.86,18.51-5.93,11.84-9.23,22.65-10.09,33l-1.58-.13c.88-10.57,4.23-21.56,10.26-33.61,6.15-11.5,18.3-19.27,30.26-19.37,8.17-.05,14.7,3.52,18.35,10.08a21.36,21.36,0,0,1-1.6,21.88c-4.75,6.76-12.71,10-21.86,8.92-8.93-.9-13.93-.06-18.43,3.1C386.29,184.05,385.24,190.58,384.87,195.89Z" transform="translate(-9.91 -56.52)"/><path class="cls-1" d="M388.91,194.51a39.15,39.15,0,0,1,16.58,32.65C405.49,254.46,382,270,356,270a65.09,65.09,0,0,1-23.47-4.59c-8.42,1.27-21.94,4.59-22.45,11.48-1,9.95,14,11.48,48.22,11.48,45.41,0,67.34,11,66.33,35.71-1,28.83-27.05,51.79-68.38,51.79-36,0-71.43-13.26-68.87-39.54,1.53-12.5,12.5-22.7,29.84-28.57-16.58-4.85-25.51-13.52-23-26,2.81-12.5,18.63-18.12,30.62-20.67-11-7.14-18.12-18.62-18.12-33.93,0-27.29,23.22-42.35,49.24-42.35,9.95,0,19.64,2,27.81,6.38ZM355,312.11a184.1,184.1,0,0,1-24.75-1.53c-10.71,3.83-20.92,11.74-21.68,26.54-1.28,24.74,26.79,31.63,49,31.63,21.68.25,43.11-11,46.68-31.89C407.53,316.45,389.42,312.11,355,312.11Zm-24-85c0,23.73,10.71,36.23,25,36.23,14.54,0,25.26-12.5,25.26-36.23,0-23.47-10.72-36-25.26-36C341.71,191.19,331,203.69,331,227.16Z" transform="translate(-9.91 -56.52)"/><path class="cls-2" d="M356.25,376.69c-27.54,0-51.53-7.58-62.6-19.78a25.92,25.92,0,0,1-7.06-20.63c1.47-12,11.67-22.32,28.12-28.45-16.31-5.35-23.64-14.39-21.22-26.23,2.71-12.11,17.11-18,29.43-20.88C312,252.92,306,241.08,306,227.16,306,197.52,331.9,184,356,184c10.47,0,20.21,2.24,28.18,6.47l5.19,3.38a39.92,39.92,0,0,1,16.91,33.29c0,28.66-25.29,43.65-50.28,43.65a65.67,65.67,0,0,1-23.56-4.56c-5.21.8-21.06,3.82-21.57,10.72a5.74,5.74,0,0,0,1.39,4.71c4.48,5,19.64,5.91,46,5.91,30.41,0,49.94,5,59.69,15.12,5.29,5.5,7.79,12.71,7.43,21.43C424.32,355.07,395.88,376.69,356.25,376.69ZM356,185.61c-23.33,0-48.44,13-48.44,41.55,0,14.2,6.14,25.71,17.75,33.27l1.6,1-1.87.4c-12.22,2.6-27.34,8.19-30,20.06-3,14.45,10.55,21.62,22.4,25.09l2.42.7-2.38.81c-17.17,5.81-27.86,16-29.32,27.92a24.41,24.41,0,0,0,6.67,19.4c10.77,11.87,34.31,19.25,61.42,19.25,38.73,0,66.52-21,67.58-51,.35-8.39-1.94-15-7-20.28-9.44-9.84-28.6-14.62-58.55-14.62-27.47,0-42.31-1-47.22-6.43a7.36,7.36,0,0,1-1.79-5.92c.57-7.64,14.73-10.91,23.12-12.18l.21,0,.2.08A64.09,64.09,0,0,0,356,269.23c24.2,0,48.7-14.45,48.7-42.07a38.38,38.38,0,0,0-16.24-32l-5.09-3.31C375.69,187.78,366.21,185.61,356,185.61Zm2.22,183.94h-.7c-9.11,0-31.57-1.3-43-13.37-4.86-5.12-7.12-11.54-6.73-19.1.84-16.25,12.54-23.78,22.21-27.23l.18-.07.19,0A182.43,182.43,0,0,0,355,311.32c27.07,0,40.61,2.93,46.72,10.12,3.29,3.87,4.37,8.95,3.3,15.55C401.17,359.43,378.21,369.55,358.22,369.55Zm-27.9-58.15c-9.18,3.32-20.19,10.48-21,25.76-.36,7.1,1.76,13.13,6.3,17.91,11,11.63,33,12.88,41.89,12.88,19.45.23,42.18-9.44,45.9-31.22,1-6.1,0-10.77-2.93-14.26-5.78-6.79-19-9.56-45.52-9.56A184.7,184.7,0,0,1,330.32,311.4ZM356,264.18c-15.91,0-25.79-14.18-25.79-37,0-22.33,10.12-36.76,25.79-36.76,16.07,0,26.05,14.09,26.05,36.76C382.05,250,372.07,264.18,356,264.18ZM356,192c-14.93,0-24.21,13.48-24.21,35.17,0,21.86,9.28,35.44,24.21,35.44,15.09,0,24.46-13.58,24.46-35.44C380.46,205.47,371.09,192,356,192Z" transform="translate(-9.91 -56.52)"/><path class="cls-3" d="M695.65,87.2l.28.41c-1.19.93-1.11,2-.88,3.2l5.68,24.7-.55.37-19.13-15.12,5.82,24-.51.34-20.7-15.35a2.39,2.39,0,0,0-2.66-.17l-.28-.42,4.36-2.91.28.42c-.91.75-.71,1.55.23,2.26l18.11,13.59-6.05-24.65.28-.19,19.67,15.63L694.45,91c-.26-1.1-.64-1.86-1.63-1.33l-.27-.42Z" transform="translate(-9.91 -56.52)"/><path class="cls-3" d="M748,95.09l.15.48-5.45,1.79-.16-.48c1.66-.66,1.49-1.54.9-3.35l-3.69-11.28c-1.86-5.67-5.7-9.7-11.74-7.72-4,1.32-7.4,6.24-6,10.48l4.59,14c.59,1.8,1,2.61,2.7,2.16l.16.48L724,103.48l-.15-.48c1.65-.66,1.54-1.56.95-3.36l-10-30.58c-.58-1.8-1-2.59-2.77-2.2l-.15-.48,2.84-2,.48-.16L721,82a10.76,10.76,0,0,1,7.1-8.25c5.78-1.89,11,.17,13.27,7.22l3.9,11.92C745.89,94.73,746.28,95.54,748,95.09Z" transform="translate(-9.91 -56.52)"/><path class="cls-3" d="M762.27,59a1.84,1.84,0,1,1,2,1.55A1.75,1.75,0,0,1,762.27,59Zm9,32.6.06.5-5.7.68-.06-.5c1.76-.32,1.82-1.23,1.59-3.11l-2.27-18.87c-.23-1.88-.5-2.75-2.29-2.7l-.06-.5,3.19-1.45.5-.06,2.82,23.36C769.3,90.79,769.52,91.66,771.3,91.56Z" transform="translate(-9.91 -56.52)"/><path class="cls-3" d="M799.75,77.42c4.37,1.8,9.51,3.86,7.82,9.24-1.28,4.12-5.45,5.91-10.66,5.29a19.69,19.69,0,0,1-9.24-3.73l.22-4.17.39,0c.92,4.74,4.84,6.68,8.77,7.22,3.11.39,7.49-.05,8.93-4,1.7-4.82-3.17-6.48-7.11-8-4.65-1.81-10.5-4.13-8.15-10.54,1.11-3,5-4.53,8.6-4.23a14.58,14.58,0,0,1,8.19,3.4l-.15,3.84-.39,0c-1-4.74-4.68-6.39-8.08-6.57-2.45-.13-5.85.86-6.81,3.26C790,73.89,795.32,75.57,799.75,77.42Z" transform="translate(-9.91 -56.52)"/><path class="cls-3" d="M852.78,89c-2.32,8-8.76,11.74-15.66,9.73a11.2,11.2,0,0,1-8-9.52l-4.34,14.93c-.53,1.82-.68,2.71,1,3.37l-.14.48-5.51-1.6.14-.49c1.81.36,2.17-.47,2.7-2.29l8.83-30.35c.53-1.82.67-2.71-1-3.38l.14-.49,3.51-.08.48.14L833,76.12a11.21,11.21,0,0,1,11.84-3.76C851.7,74.38,855.12,81,852.78,89Zm-1.93-.56c2.31-7.92-.73-13.86-6.24-15.46S833.3,74.94,831,82.7s.8,13.82,6.26,15.41S848.55,96.39,850.85,88.47Z" transform="translate(-9.91 -56.52)"/><path class="cls-3" d="M873.68,96.47c-.3.41-.55.84-.84,1.32-4.11,7.09-1.69,13,2.45,16.2a10.72,10.72,0,0,0,11.62,1.21l.24.59a11.73,11.73,0,0,1-11.62-.31c-6.41-3.73-8.69-11.24-4.37-18.66s11.39-9.06,17.41-5.55c7.71,4.48,6.13,12.2,3.91,16l-.05.1Zm.41-.6,17.11,9.95c2.38-4.42,3.09-10.52-2.74-13.91C884,89.38,878.23,90.41,874.09,95.87Z" transform="translate(-9.91 -56.52)"/><path class="cls-3" d="M924.89,125.64c-.69-.4-1.08-1.21-.14-2.24,1.2-1.4,1-3.32-1.17-5-2.78-2.16-8-1.77-12.94,3.66L903,130.41c-1.28,1.4-1.8,2.13-.56,3.42l-.34.37-4.24-3.88.34-.37c1.39,1.12,2.08.54,3.36-.86l12.82-14c1.28-1.4,1.8-2.13.6-3.46l.34-.37,3.18,1.48.37.34-4.66,5.1c3.73-2.18,7.5-2.43,10.5.24,1.89,1.57,2.91,4.09,2.32,5.89C926.62,125.48,925.66,126,924.89,125.64Z" transform="translate(-9.91 -56.52)"/><path class="cls-3" d="M969.17,181.66l-.44.24c-.77-1.24-1.77-1.22-3-1.13l-25.41,2.49c-9.17.62-12.69.13-14.79-2.8a6,6,0,0,1-1.13-4.12c.27-1.16,1.24-1.84,2.09-1.41s.72,1.51-.11,2.19c-1.09.82-.74,2.21.2,3.42,1.59,2.19,5.88,2.72,13.53,2.07L956.18,163c.88-1.09,1.48-2,.94-3.39l.44-.23L960,164l-.45.23c-.64-1-1.46-.75-2.19.14L942.53,182.4l23.15-2.25c1.07-.12,1.74-.53,1.32-1.57l.45-.23Z" transform="translate(-9.91 -56.52)"/><path class="cls-3" d="M970,228.75c-8.16,2.07-14.72-2.25-16.51-9.27s1.91-14,10.07-16.08,14.78,2.24,16.58,9.31S978.25,226.66,970,228.75Zm-.5-1.95c7.89-2,11.48-8,10-13.92s-7.54-9.53-15.43-7.53-11.48,8-10,14S961.65,228.8,969.54,226.8Z" transform="translate(-9.91 -56.52)"/><path class="cls-3" d="M959.91,273.43h-.5v-3.78h4.79a9.27,9.27,0,0,1-5.41-8.8c0-6,3.62-10.87,11-10.88h12c1.89,0,2.78-.12,3-2h.5l1.06,3.35v.5H970.1c-6,0-10.59,3-10.58,9.37a8.23,8.23,0,0,0,8,8.41h14.27c1.89,0,2.79-.17,2.95-1.95h.5l1.06,3.34v.51H962.81C960.92,271.53,960,271.64,959.91,273.43Z" transform="translate(-9.91 -56.52)"/><path class="cls-3" d="M974.67,311.82c0-.8.51-1.55,1.87-1.24,1.81.34,3.37-.8,3.75-3.52.48-3.49-2.45-7.79-9.64-9.38l-11-2.44c-1.85-.4-2.75-.48-3.24,1.23l-.49-.1,1.23-5.61.5.11c-.28,1.76.57,2.06,2.42,2.47l18.56,4.1c1.85.4,2.75.49,3.3-1.22l.49.11.31,3.5-.11.49-6.75-1.49c3.75,2.14,5.86,5.28,5,9.22-.42,2.42-2.1,4.56-4,4.95C975.67,313.24,974.7,312.68,974.67,311.82Z" transform="translate(-9.91 -56.52)"/><path class="cls-3" d="M935.24,373.59c-6.94-4.57-8.64-11.83-4.69-17.83A11.18,11.18,0,0,1,942,350.94l-13-8.55c-1.58-1-2.39-1.44-3.51,0l-.42-.28,3.16-4.8.42.28c-.87,1.63-.19,2.21,1.39,3.26l26.41,17.37c1.59,1,2.39,1.44,3.54,0l.42.28-.95,3.37-.28.42-5.77-3.8a11.19,11.19,0,0,1,.11,12.42C949.56,376.87,942.23,378.18,935.24,373.59Zm1.1-1.68c6.9,4.53,13.46,3.38,16.62-1.42s1.47-11.37-5.28-15.81-13.44-3.31-16.57,1.44S929.45,367.38,936.34,371.91Z" transform="translate(-9.91 -56.52)"/><path class="cls-3" d="M916,406.25c.44-.67,1.28-1,2.25,0,1.31,1.29,3.25,1.21,5.06-.85,2.34-2.64,2.28-7.84-2.82-13.15l-7.85-8.15c-1.32-1.37-2-1.93-3.38-.77l-.35-.37,4.14-4,.35.36c-1.21,1.32-.67,2,.64,3.41l13.19,13.7c1.31,1.36,2,1.93,3.41.81l.35.36-1.67,3.08-.37.35-4.79-5c1.94,3.86,1.94,7.65-.91,10.47-1.69,1.78-4.27,2.64-6,1.94C916,408,915.55,407,916,406.25Z" transform="translate(-9.91 -56.52)"/><path class="cls-3" d="M894.93,414.26c-.22-.45-.49-.88-.78-1.35-4.32-7-10.69-7.6-15.45-5.43a10.7,10.7,0,0,0-6.51,9.69l-.63-.06A11.69,11.69,0,0,1,877.28,407c6.29-3.92,14-2.4,18.53,4.89s2.65,14.3-3.27,18c-7.57,4.7-13.65-.32-16-4.06l-.06-.09Zm.33.65-16.81,10.44c2.79,4.18,7.85,7.67,13.58,4.1C896.35,426.7,898.14,421.13,895.26,414.91Z" transform="translate(-9.91 -56.52)"/><path class="cls-3" d="M848.07,436.74c-4.72,0-10.26,0-10.72-5.61-.37-4.3,2.82-7.53,7.88-8.93a19.88,19.88,0,0,1,10,0l1.37,3.95-.37.13c-2.64-4-7-4.36-10.85-3.38-3,.8-6.91,2.86-6.76,7.05.24,5.12,5.38,4.81,9.61,4.76,5-.07,11.29-.13,11.52,6.69.11,3.21-3,6.1-6.37,7.16a14.6,14.6,0,0,1-8.87-.05l-1.31-3.62.37-.13c2.74,4,6.75,4.16,10,3,2.32-.8,5.1-3,5.08-5.59C858.44,436.34,852.87,436.79,848.07,436.74Z" transform="translate(-9.91 -56.52)"/><path class="cls-3" d="M819.11,445.1a14.3,14.3,0,0,0-.11-1.56c-.9-8.15-6.37-11.47-11.6-11.56a10.71,10.71,0,0,0-10.06,5.93l-.54-.33a11.72,11.72,0,0,1,9.53-6.66c7.37-.82,13.67,3.87,14.61,12.41s-3.78,14-10.71,14.81c-8.86,1-12.18-6.17-12.66-10.55v-.11Zm0,.72L799.46,448c.72,5,3.78,10.29,10.48,9.55C815,456.93,819.05,452.68,819.14,445.82Z" transform="translate(-9.91 -56.52)"/><path class="cls-3" d="M754.42,429.83l.07-.5,5.69.74-.06.49c-1.79-.11-2,.76-2.25,2.64L756.35,445c-.75,5.91,1,11.2,7.34,12,4.15.53,9.31-2.46,9.88-6.88l1.88-14.65c.24-1.88.25-2.78-1.51-3.12l.07-.5,5.69.73-.06.5c-1.79-.12-2.07.75-2.31,2.63l-2.42,18.85c-.24,1.88-.19,2.79,1.56,3.18l-.06.5-3.46.62-.49-.06.71-5.58a10.76,10.76,0,0,1-9.95,4.4c-6-.77-9.83-4.87-8.89-12.22l1.6-12.44C756.17,431.07,756.18,430.17,754.42,429.83Z" transform="translate(-9.91 -56.52)"/><path class="cls-3" d="M714.72,421.48c3.34-2.3,7-3.34,11.44-1.63,6.87,2.64,10.36,9.72,7.27,17.73s-10.38,10.53-16.88,8c-4.06-1.56-6.93-4.52-7.18-7.42-.11-1.12.49-2.21,1.37-2.16s1.67.94,1.11,2.22c-1,2.4.74,5.24,4.71,6.71,5.33,2,12.11-.42,15.06-8.07s-.39-13.11-5-15.6a10.54,10.54,0,0,0-11.58.74Z" transform="translate(-9.91 -56.52)"/><path class="cls-3" d="M692.07,420.41c.33-.39.61-.8.93-1.26,4.63-6.76,2.65-12.84-1.25-16.32a10.71,10.71,0,0,0-11.49-2.07l-.19-.6a11.72,11.72,0,0,1,11.56,1.16c6.12,4.19,7.83,11.85,3,18.93s-12,8.19-17.77,4.25c-7.36-5-5.21-12.62-2.72-16.25l.06-.1Zm-.46.57-16.32-11.19c-2.7,4.23-3.86,10.26,1.71,14.08C681.26,426.72,687.08,426.11,691.61,421Z" transform="translate(-9.91 -56.52)"/><g class="cls-4"><path class="cls-5" d="M64.15,350.49c-20.23,0-37.57-5.31-53-16.22l-.33-.24V300.9H16.5l.18.55C24.8,327.4,40.14,341.69,61,342.79c19,1,31.46-7.69,34.27-23.8,3.68-21.2-13.54-30.92-33.47-42.18l-1.24-.7c-25.48-14.38-47.8-29.75-41.14-59.51,4.48-20,20.92-31,46.29-31,17.83,0,30.72,6.2,45.73,16.21l.35.24v31.78H106.1l-.15-.6c-6.29-26-18.49-39-37.3-39.7-16-.82-25.86,6.92-27,21.23C40,232.36,54.48,240.67,72.81,251.19l5.1,2.94h0c29.8,17.4,48.76,31.07,41.13,61.34C111,345.94,81.21,350.49,64.15,350.49ZM12.41,333.21c15.07,10.56,32,15.69,51.74,15.69,16.6,0,45.61-4.39,53.36-33.82,7.36-29.26-10.35-42-40.39-59.58h0L72,252.57c-18.08-10.38-33.69-19.34-32-37.91,1.25-15.28,11.73-23.53,28.68-22.68,19.46.73,32.1,13.92,38.63,40.31h2.88V202.94c-14.61-9.71-27.2-15.71-44.49-15.71C51.52,187.23,26.8,191.09,21,217c-6.43,28.7,15.43,43.71,40.37,57.78l1.24.7C83.07,287,100.73,297,96.86,319.26c-3,17-16.06,26.14-35.92,25.11-21.46-1.13-37.22-15.61-45.6-41.89H12.41Z" transform="translate(-9.91 -56.52)"/></g><path class="cls-5" d="M211.56,350.49c-30.87,0-66.91-16.75-66.91-64V207.27c0-8.91-2.41-12-9.92-12.57l-.73-.06v-6.51h47.11v6.51l-.73.06c-7.77.61-10.14,3.55-10.14,12.57V287c0,33.46,17.12,52.65,47,52.65,32.18,0,43.59-28.61,43.59-53.1V207.27c0-8.91-2.41-12-9.91-12.57l-.73-.06v-6.51h31.7v6.51l-.73.06c-7.5.6-9.91,3.66-9.91,12.57v78.8C271.23,324.6,247.25,350.49,211.56,350.49Zm-76-157.31c8.88,1,10.65,5.93,10.65,14.09v79.25c0,46,35.19,62.38,65.32,62.38,34.74,0,58.08-25.25,58.08-62.83v-78.8c0-8.16,1.77-13.12,10.65-14.09v-3.46H251.76v3.46c8.87,1,10.64,5.93,10.64,14.09v79.25c0,33.22-17.73,54.69-45.18,54.69-30.86,0-48.57-19.77-48.57-54.24v-79.7c0-8.17,1.8-13.13,10.87-14.09v-3.46H135.59Z" transform="translate(-9.91 -56.52)"/><path class="cls-5" d="M574.42,348.22H540.59l-.24-.36-41.43-65.53c-1,0-2,.06-3,.11-1.2.06-2.41.12-3.55.12H470.71v46.3c0,9.08,2.41,12.19,9.92,12.8l.73.06v6.5h-47.1v-6.5l.73-.06c7.67-.61,10.14-3.72,10.14-12.8V207.27c0-9-2.37-12-10.14-12.57l-.73-.06v-6.51h58.08c30.6,0,63.29,12.4,63.29,47.21,0,20.19-11.12,34.8-32.18,42.31l33.64,50.78c4.64,7.18,10.58,11.88,16.71,13.24l.62.14Zm-33-1.58h31.38v-3.56c-6.32-1.63-12.37-6.5-17.08-13.78L521,276.82l1-.34c14.63-5,32.07-16.18,32.07-41.14,0-33.64-31.87-45.62-61.7-45.62h-56.5v3.46c9.07,1,10.87,5.92,10.87,14.09V328.86c0,8.1-1.84,13.34-10.87,14.31v3.47h43.93v-3.47c-8.84-1-10.64-6.22-10.64-14.31V281h23.21c1.12,0,2.3-.05,3.47-.11s2.4-.12,3.55-.12h.44Zm-51.39-72.91H469.13v-77h20.94c24.56,0,40.42,15.16,40.42,38.61S514.63,273.73,490.07,273.73Zm-19.36-1.59h19.36c24,0,38.84-14.1,38.84-36.8s-14.88-37-38.84-37H470.71Z" transform="translate(-9.91 -56.52)"/><path class="cls-5" d="M737.46,348.22H684.92v-6.5l.73-.06c4-.32,7-1.83,8.48-4.25s1.54-5.55.13-9.16l-12.92-31.2H618.56l-12,32.09c-1.37,3.72-1.43,6.63-.18,8.64s4.2,3.42,8.58,3.88l.71.08v6.48h-36v-6.48l.71-.08c7.77-.82,11.68-4.18,15-12.85L640.82,207c1.48-4,1.56-7.14.24-9.23-1.11-1.77-3.25-2.8-6.36-3.06l-.73-.07v-6.5h28.5l59.07,140.42c3.46,8,6.91,12.45,15.19,13.11l.73.06Zm-51-1.58h49.36v-3.47c-8.51-.92-12.27-5.86-15.78-14h0L661.41,189.72H635.56v3.47c3.24.41,5.55,1.66,6.85,3.72,1.59,2.53,1.55,6.2-.11,10.63L596.79,329.37c-2.88,7.62-6.53,12.61-15.58,13.78v3.49h32.84v-3.48c-4.56-.59-7.53-2.08-9.06-4.54s-1.5-5.82,0-10l12.42-33.13H682.4l13.33,32.19c1.6,4.12,1.51,7.78-.26,10.6s-4.85,4.43-9,4.92Zm-6.86-58.2H620l28.27-76.34Zm-57.33-1.58h55l-28.9-70.39Z" transform="translate(-9.91 -56.52)"/><path class="cls-5" d="M791.24,175.51a3.9,3.9,0,0,1-3.65-2.28c-1.47-2.93-.15-4.7,2.27-6.46a279.87,279.87,0,0,1,24.25-18.13c3-2,5.89-2.7,8.45-2.08a9.44,9.44,0,0,1,5.82,4.83,9.23,9.23,0,0,1,.87,7.49c-.91,2.49-3.08,4.47-6.47,5.87A281.66,281.66,0,0,1,794.17,175,10.26,10.26,0,0,1,791.24,175.51Zm29.48-27.58a10.67,10.67,0,0,0-5.73,2A280.14,280.14,0,0,0,790.84,168c-2.58,1.88-2.65,2.85-1.84,4.47.77,1.39,1.68,1.89,4.71,1h0a279.62,279.62,0,0,0,28.45-10.16c3-1.22,4.84-2.89,5.58-4.94a7.64,7.64,0,0,0-.77-6.19,7.78,7.78,0,0,0-4.79-4.05A6.56,6.56,0,0,0,820.72,147.93Z" transform="translate(-9.91 -56.52)"/><path class="cls-5" d="M863.71,348.22H749.45v-6.48l.71-.08c7.52-.81,9.93-3.92,9.93-12.8V207.27c0-8.91-2.41-12-9.91-12.57l-.73-.06v-6.51H858.73l4.5,36.69h-5.78l-.18-.56c-4.22-13.47-10.79-25.94-30-25.94H785.68V262H813c15.57,0,19.47-5.15,20.95-14.06l.11-.66h5.55v39.86H834l-.11-.67c-1.5-9-5.42-14.28-20.95-14.28H785.68v65.67h46.76c19.74,0,25.86-13.4,30-25.95l.19-.55h5.54ZM751,346.64H862.31l4.11-33.74h-2.61c-4.36,12.92-10.86,26.49-31.37,26.49H784.1V270.56H813c16.2,0,20.71,5.69,22.4,14.94H838V248.82h-2.62c-1.67,9.1-6.17,14.72-22.4,14.72H784.1V196.73h43.13c22.6,0,28.56,17.53,31.38,26.5h2.83l-4.11-33.51H751v3.46c8.88,1,10.64,5.93,10.64,14.09V328.86c0,8.12-1.76,13.09-10.64,14.29Z" transform="translate(-9.91 -56.52)"/><path class="cls-5" d="M357.17,376.23c-27.55,0-51.54-7.58-62.61-19.77a26,26,0,0,1-7.06-20.64c1.47-12,11.67-22.31,28.12-28.44C299.31,302,292,293,294.4,281.15c2.72-12.12,17.11-18,29.43-20.89-10.95-7.79-16.95-19.63-16.95-33.55,0-29.64,25.94-43.14,50-43.14a65.29,65.29,0,0,1,18.4,2.55c1.25-9.66,4.49-19.63,9.89-30.43,6.15-11.5,18.31-19.27,30.26-19.37,8.2,0,14.7,3.52,18.35,10.08a21.36,21.36,0,0,1-1.6,21.88c-4.74,6.75-12.72,10-21.86,8.91-8.93-.89-13.92-.05-18.43,3.1h0c-2.92,2.05-4.7,5.4-5.59,10.55l3.92,2.55a40,40,0,0,1,16.95,33.32c0,28.66-25.3,43.65-50.29,43.65a65.69,65.69,0,0,1-23.56-4.57c-5.21.81-21.05,3.82-21.57,10.73a5.79,5.79,0,0,0,1.39,4.71c4.49,5,19.64,5.91,46,5.91,30.41,0,49.94,4.95,59.7,15.11,5.28,5.51,7.78,12.72,7.42,21.43C425.23,354.62,396.79,376.23,357.17,376.23Zm-.26-191.08c-23.33,0-48.44,13-48.44,41.56,0,14.2,6.14,25.7,17.75,33.26l1.6,1-1.87.4c-12.21,2.59-27.34,8.19-30,20.06-2.95,14.45,10.56,21.62,22.41,25.08l2.41.71-2.38.81c-17.17,5.8-27.85,16-29.32,27.91a24.39,24.39,0,0,0,6.67,19.4c10.78,11.88,34.31,19.25,61.43,19.25,38.72,0,66.51-21,67.57-51,.35-8.38-1.93-15-7-20.27-9.44-9.84-28.59-14.62-58.55-14.62-27.46,0-42.31-1-47.22-6.44a7.32,7.32,0,0,1-1.79-5.91c.57-7.64,14.73-10.92,23.12-12.19l.21,0,.2.08a64.11,64.11,0,0,0,23.18,4.53c24.2,0,48.7-14.44,48.7-42.06a38.4,38.4,0,0,0-16.25-32l-4.76-3.09.08-.51c.93-5.89,2.94-9.74,6.33-12.11h0c4.86-3.39,10.15-4.31,19.51-3.37,8.57,1,16-2,20.4-8.25a19.78,19.78,0,0,0,1.49-20.23c-3.34-6-9.43-9.3-16.93-9.23-11.4.09-23,7.53-28.87,18.51-5.48,11-8.71,21.05-9.84,30.82l-.11.95-.91-.28A63.21,63.21,0,0,0,356.91,185.15Zm2.22,183.94h-.7c-9.11,0-31.56-1.3-43-13.38-4.85-5.11-7.12-11.53-6.73-19.09.84-16.25,12.54-23.78,22.21-27.24l.18-.06.19,0a182.43,182.43,0,0,0,24.64,1.52c27.07,0,40.61,2.93,46.73,10.12,3.28,3.87,4.36,8.95,3.29,15.55C402.08,359,379.12,369.09,359.13,369.09Zm-27.9-58.15c-9.18,3.32-20.19,10.48-21,25.76-.36,7.11,1.76,13.14,6.3,17.92,11,11.63,33,12.88,41.89,12.88,19.57.24,42.18-9.44,45.91-31.22,1-6.11,0-10.77-2.94-14.26-5.78-6.79-19-9.57-45.52-9.57A183.15,183.15,0,0,1,331.23,310.94Zm25.68-47.21c-15.91,0-25.79-14.18-25.79-37,0-22.33,10.12-36.76,25.79-36.76,16.07,0,26,14.08,26,36.76C383,249.55,373,263.73,356.91,263.73Zm0-72.2c-14.93,0-24.21,13.48-24.21,35.18,0,21.86,9.28,35.43,24.21,35.43,15.09,0,24.46-13.57,24.46-35.43C381.37,205,372,191.53,356.91,191.53Z" transform="translate(-9.91 -56.52)"/></svg>